<svg width="18" height="20" viewBox="0 0 18 20" fill="none" xmlns="http://www.w3.org/2000/svg">
<g id="book-bookmark-solid 1" clip-path="url(#clip0_259_1377)">
<path id="Vector" d="M0 3.75C0 1.67969 1.67969 0 3.75 0H7.5V7.44922C7.5 7.97266 8.10547 8.26562 8.51562 7.9375L10.625 6.25L12.7344 7.9375C13.1445 8.26562 13.75 7.97266 13.75 7.44922V0H15H16.25C16.9414 0 17.5 0.558594 17.5 1.25V13.75C17.5 14.4414 16.9414 15 16.25 15V17.5C16.9414 17.5 17.5 18.0586 17.5 18.75C17.5 19.4414 16.9414 20 16.25 20H15H3.75C1.67969 20 0 18.3203 0 16.25V3.75ZM2.5 16.25C2.5 16.9414 3.05859 17.5 3.75 17.5H13.75V15H3.75C3.05859 15 2.5 15.5586 2.5 16.25Z" fill="black"/>
</g>
<defs>
<clipPath id="clip0_259_1377">
<rect width="17.5" height="20" fill="white"/>
</clipPath>
</defs>
</svg>
