<svg width="13" height="14" viewBox="0 0 13 14" fill="none" xmlns="http://www.w3.org/2000/svg">
<g id="boxes-stacked-solid 1" clip-path="url(#clip0_95_1488)">
<path id="Vector" d="M5.27431 0H4.42361C3.86003 0 3.40278 0.587891 3.40278 1.3125V4.375C3.40278 5.34023 4.01315 6.125 4.76389 6.125H7.48611C8.23685 6.125 8.84722 5.34023 8.84722 4.375V1.3125C8.84722 0.587891 8.38997 0 7.82639 0H6.97569V2.1875C6.97569 2.42813 6.82257 2.625 6.63542 2.625H5.61458C5.42743 2.625 5.27431 2.42813 5.27431 2.1875V0ZM1.36111 7C0.610373 7 0 7.78477 0 8.75V12.25C0 13.2152 0.610373 14 1.36111 14H4.76389C5.51463 14 6.125 13.2152 6.125 12.25V8.75C6.125 7.78477 5.51463 7 4.76389 7H3.91319V9.1875C3.91319 9.42813 3.76007 9.625 3.57292 9.625H2.55208C2.36493 9.625 2.21181 9.42813 2.21181 9.1875V7H1.36111ZM7.48611 14H10.8889C11.6396 14 12.25 13.2152 12.25 12.25V8.75C12.25 7.78477 11.6396 7 10.8889 7H10.0382V9.1875C10.0382 9.42813 9.88507 9.625 9.69792 9.625H8.67708C8.48993 9.625 8.33681 9.42813 8.33681 9.1875V7H7.48611C7.1671 7 6.87361 7.13945 6.6418 7.37734C6.74601 7.66172 6.80556 7.97891 6.80556 8.3125V12.6875C6.80556 13.0211 6.74601 13.3383 6.6418 13.6227C6.87361 13.8605 7.1671 14 7.48611 14Z" fill="black"/>
</g>
<defs>
<clipPath id="clip0_95_1488">
<rect width="12.25" height="14" fill="white"/>
</clipPath>
</defs>
</svg>
