<svg width="23" height="20" viewBox="0 0 23 20" fill="none" xmlns="http://www.w3.org/2000/svg">
<path id="Vector" d="M0.9375 0C0.417969 0 0 0.417969 0 0.9375C0 1.45703 0.417969 1.875 0.9375 1.875H2.71484C2.86328 1.875 2.99219 1.98047 3.02344 2.12891L5.03906 12.7148C5.29297 14.043 6.45312 15 7.80078 15H19.0625C19.582 15 20 14.582 20 14.0625C20 13.543 19.582 13.125 19.0625 13.125H7.80078C7.35156 13.125 6.96484 12.8047 6.87891 12.3633L6.66797 11.25H17.9375C19.2109 11.25 20.3242 10.3984 20.6523 9.16797L22.2539 3.21875C22.5234 2.22656 21.7734 1.25 20.7461 1.25H14.0625V5.23828L14.9609 4.33984C15.3281 3.97266 15.9219 3.97266 16.2852 4.33984C16.6484 4.70703 16.6523 5.30078 16.2852 5.66406L13.7852 8.16406C13.418 8.53125 12.8242 8.53125 12.4609 8.16406L9.96094 5.66406C9.59375 5.29688 9.59375 4.70312 9.96094 4.33984C10.3281 3.97656 10.9219 3.97266 11.2852 4.33984L12.1836 5.23828V1.25H4.69141C4.33594 0.5 3.57812 0 2.71484 0H0.9375ZM6.875 20C7.37228 20 7.84919 19.8025 8.20083 19.4508C8.55246 19.0992 8.75 18.6223 8.75 18.125C8.75 17.6277 8.55246 17.1508 8.20083 16.7992C7.84919 16.4475 7.37228 16.25 6.875 16.25C6.37772 16.25 5.90081 16.4475 5.54917 16.7992C5.19754 17.1508 5 17.6277 5 18.125C5 18.6223 5.19754 19.0992 5.54917 19.4508C5.90081 19.8025 6.37772 20 6.875 20ZM20 18.125C20 17.6277 19.8025 17.1508 19.4508 16.7992C19.0992 16.4475 18.6223 16.25 18.125 16.25C17.6277 16.25 17.1508 16.4475 16.7992 16.7992C16.4475 17.1508 16.25 17.6277 16.25 18.125C16.25 18.6223 16.4475 19.0992 16.7992 19.4508C17.1508 19.8025 17.6277 20 18.125 20C18.6223 20 19.0992 19.8025 19.4508 19.4508C19.8025 19.0992 20 18.6223 20 18.125Z" fill="black"/>
</svg>
