<svg width="23" height="20" viewBox="0 0 23 20" fill="none" xmlns="http://www.w3.org/2000/svg">
<path id="Vector" d="M0 0.9375C0 0.417969 0.417969 0 0.9375 0H2.71484C3.57422 0 4.33594 0.5 4.69141 1.25H20.7461C21.7734 1.25 22.5234 2.22656 22.2539 3.21875L20.6523 9.16797C20.3203 10.3945 19.207 11.25 17.9375 11.25H6.66797L6.87891 12.3633C6.96484 12.8047 7.35156 13.125 7.80078 13.125H19.0625C19.582 13.125 20 13.543 20 14.0625C20 14.582 19.582 15 19.0625 15H7.80078C6.44922 15 5.28906 14.0391 5.03906 12.7148L3.02344 2.12891C2.99609 1.98047 2.86719 1.875 2.71484 1.875H0.9375C0.417969 1.875 0 1.45703 0 0.9375ZM5 18.125C5 17.8788 5.0485 17.635 5.14273 17.4075C5.23695 17.18 5.37506 16.9733 5.54917 16.7992C5.72328 16.6251 5.92998 16.487 6.15747 16.3927C6.38495 16.2985 6.62877 16.25 6.875 16.25C7.12123 16.25 7.36505 16.2985 7.59253 16.3927C7.82002 16.487 8.02671 16.6251 8.20082 16.7992C8.37493 16.9733 8.51305 17.18 8.60727 17.4075C8.7015 17.635 8.75 17.8788 8.75 18.125C8.75 18.3712 8.7015 18.615 8.60727 18.8425C8.51305 19.07 8.37493 19.2767 8.20082 19.4508C8.02671 19.6249 7.82002 19.763 7.59253 19.8573C7.36505 19.9515 7.12123 20 6.875 20C6.62877 20 6.38495 19.9515 6.15747 19.8573C5.92998 19.763 5.72328 19.6249 5.54917 19.4508C5.37506 19.2767 5.23695 19.07 5.14273 18.8425C5.0485 18.615 5 18.3712 5 18.125ZM18.125 16.25C18.6223 16.25 19.0992 16.4475 19.4508 16.7992C19.8025 17.1508 20 17.6277 20 18.125C20 18.6223 19.8025 19.0992 19.4508 19.4508C19.0992 19.8025 18.6223 20 18.125 20C17.6277 20 17.1508 19.8025 16.7992 19.4508C16.4475 19.0992 16.25 18.6223 16.25 18.125C16.25 17.6277 16.4475 17.1508 16.7992 16.7992C17.1508 16.4475 17.6277 16.25 18.125 16.25Z" fill="black"/>
</svg>
