<svg width="30" height="30" viewBox="0 0 30 30" fill="none" xmlns="http://www.w3.org/2000/svg">
<g id="brand / github">
<path id="coolicon" d="M15.0325 2.5C8.91618 2.49921 3.70229 6.93498 2.72302 12.9724C1.74375 19.0098 5.28826 24.8662 11.0913 26.7987C11.7163 26.9112 11.94 26.5275 11.94 26.1975C11.94 25.9012 11.93 25.1162 11.9263 24.0725C8.45752 24.8225 7.72502 22.4 7.72502 22.4C7.49666 21.6462 7.00574 20.9992 6.34127 20.5763C5.21627 19.8025 6.42752 19.82 6.42752 19.82C7.22837 19.9298 7.93321 20.4043 8.33627 21.105C8.67744 21.7253 9.25222 22.1837 9.9329 22.3783C10.6136 22.5729 11.3438 22.4875 11.9613 22.1413C12.0193 21.5088 12.3007 20.9176 12.755 20.4737C9.98752 20.16 7.07752 19.09 7.07752 14.3113C7.06216 13.0752 7.52114 11.8804 8.36002 10.9725C7.98046 9.89664 8.02516 8.71657 8.48502 7.6725C8.48502 7.6725 9.53127 7.33625 11.9125 8.94875C13.9548 8.38876 16.1102 8.38876 18.1525 8.94875C20.535 7.335 21.58 7.6725 21.58 7.6725C22.042 8.71607 22.0867 9.89697 21.705 10.9725C22.547 11.8803 23.0056 13.0783 22.985 14.3162C22.985 19.1075 20.0725 20.16 17.295 20.4688C17.8942 21.0813 18.2015 21.9217 18.1388 22.7762C18.1388 24.4437 18.1238 25.7887 18.1238 26.1975C18.1238 26.5312 18.3463 26.9187 18.9825 26.7962C24.7831 24.8604 28.3238 19.0037 27.3425 12.9679C26.3613 6.93207 21.1476 2.4986 15.0325 2.5Z" fill="#2E3A59"/>
</g>
</svg>
