<svg width="20" height="20" viewBox="0 0 20 20" fill="none" xmlns="http://www.w3.org/2000/svg">
<path d="M19.9948 9.98047C19.9948 10.6836 19.4739 11.2344 18.8836 11.2344H17.7723L17.7967 17.4922C17.7967 17.5977 17.7897 17.7031 17.7793 17.8086V18.4375C17.7793 19.3008 17.1577 20 16.3903 20H15.8347C15.7965 20 15.7583 20 15.7201 19.9961C15.6715 20 15.6229 20 15.5742 20H14.4457H13.6123C12.8448 20 12.2233 19.3008 12.2233 18.4375V17.5V15C12.2233 14.3086 11.7267 13.75 11.1121 13.75H8.88965C8.27501 13.75 7.77844 14.3086 7.77844 15V17.5V18.4375C7.77844 19.3008 7.15686 20 6.38943 20H5.55603H4.4483C4.39621 20 4.34412 19.9961 4.29203 19.9922C4.25036 19.9961 4.20869 20 4.16702 20H3.61142C2.84399 20 2.22241 19.3008 2.22241 18.4375V14.0625C2.22241 14.0273 2.22241 13.9883 2.22588 13.9531V11.2344H1.11121C0.486152 11.2344 0 10.6875 0 9.98047C0 9.62891 0.104176 9.31641 0.347252 9.04297L9.25079 0.3125C9.49386 0.0390625 9.77166 0 10.0147 0C10.2578 0 10.5356 0.078125 10.744 0.273438L19.6128 9.04297C19.8906 9.31641 20.0295 9.62891 19.9948 9.98047Z" fill="black"/>
</svg>
