<svg width="30" height="30" viewBox="0 0 30 30" fill="none" xmlns="http://www.w3.org/2000/svg">
<g id="brand / instagram">
<path id="coolicon" d="M15.0024 26.3013C11.9274 26.3013 11.5649 26.2851 10.3649 26.2326C9.42916 26.2018 8.50548 26.0116 7.63369 25.6701C6.12533 25.0831 4.93262 23.8899 4.34619 22.3813C4.01782 21.5064 3.84071 20.582 3.82244 19.6476C3.75244 18.4501 3.75244 18.0576 3.75244 15.0063C3.75244 11.9226 3.76869 11.5626 3.82244 10.3688C3.84111 9.43575 4.01822 8.51261 4.34619 7.63885C4.93198 6.12826 6.12663 4.93406 7.63744 4.34885C8.51075 4.0191 9.43412 3.84153 10.3674 3.82385C11.5612 3.75635 11.9537 3.75635 15.0024 3.75635C18.1024 3.75635 18.4587 3.7726 19.6399 3.82385C20.5757 3.84168 21.5015 4.01923 22.3774 4.34885C23.8878 4.93473 25.0822 6.12869 25.6687 7.63885C26.0026 8.52534 26.1806 9.46291 26.1949 10.4101C26.2649 11.6076 26.2649 11.9988 26.2649 15.0488C26.2649 18.0988 26.2474 18.4988 26.1949 19.6826C26.1763 20.6178 25.9988 21.5431 25.6699 22.4188C25.082 23.9285 23.8875 25.1221 22.3774 25.7088C21.5027 26.0366 20.5788 26.2137 19.6449 26.2326C18.4512 26.3013 18.0599 26.3013 15.0024 26.3013ZM14.9599 5.7351C11.9024 5.7351 11.5849 5.7501 10.3912 5.80385C9.67867 5.81329 8.97304 5.94477 8.30494 6.1926C7.31838 6.57011 6.53772 7.34759 6.15619 8.3326C5.90646 9.00797 5.77495 9.72132 5.76744 10.4413C5.70119 11.6526 5.70119 11.9701 5.70119 15.0063C5.70119 18.0063 5.71244 18.3701 5.76744 19.5738C5.77863 20.2866 5.91006 20.9923 6.15619 21.6613C6.53829 22.6457 7.31881 23.4226 8.30494 23.8001C8.97258 24.0496 9.6785 24.1811 10.3912 24.1888C11.6012 24.2588 11.9199 24.2588 14.9599 24.2588C18.0262 24.2588 18.3437 24.2438 19.5274 24.1888C20.2404 24.1802 20.9466 24.0487 21.6149 23.8001C22.5955 23.4193 23.3711 22.6442 23.7524 21.6638C24.0017 20.9879 24.1332 20.2742 24.1412 19.5538H24.1549C24.2087 18.3588 24.2087 18.0401 24.2087 14.9863C24.2087 11.9326 24.1949 11.6113 24.1412 10.4176C24.13 9.70566 23.9986 9.00074 23.7524 8.3326C23.372 7.35081 22.5963 6.57421 21.6149 6.1926C20.9468 5.94352 20.2405 5.812 19.5274 5.80385C18.3187 5.7351 18.0024 5.7351 14.9599 5.7351ZM15.0024 20.7801C12.6649 20.7816 10.5567 19.3748 9.66102 17.2157C8.76532 15.0566 9.25857 12.5705 10.9107 10.9169C12.5629 9.26334 15.0485 8.76794 17.2084 9.66176C19.3683 10.5556 20.7769 12.6626 20.7774 15.0001C20.774 18.1889 18.1913 20.7739 15.0024 20.7801ZM15.0024 11.2476C12.9314 11.2476 11.2524 12.9265 11.2524 14.9976C11.2524 17.0687 12.9314 18.7476 15.0024 18.7476C17.0735 18.7476 18.7524 17.0687 18.7524 14.9976C18.7476 12.9285 17.0715 11.2524 15.0024 11.2476ZM21.0024 10.3564C20.2592 10.3536 19.6586 9.74958 19.6599 9.00636C19.6613 8.26313 20.2642 7.66136 21.0074 7.66136C21.7507 7.66136 22.3536 8.26312 22.3549 9.00635C22.3553 9.36493 22.2128 9.70888 21.959 9.96219C21.7052 10.2155 21.361 10.3573 21.0024 10.3564Z" fill="#2E3A59"/>
</g>
</svg>
