<svg width="15" height="20" viewBox="0 0 15 20" fill="none" xmlns="http://www.w3.org/2000/svg">
<path id="Vector" d="M7.5 0C5.86719 0 4.47656 1.04297 3.96484 2.5H2.5C1.12109 2.5 0 3.62109 0 5V17.5C0 18.8789 1.12109 20 2.5 20H12.5C13.8789 20 15 18.8789 15 17.5V5C15 3.62109 13.8789 2.5 12.5 2.5H11.0352C10.5234 1.04297 9.13281 0 7.5 0ZM7.5 2.5C7.83152 2.5 8.14946 2.6317 8.38388 2.86612C8.6183 3.10054 8.75 3.41848 8.75 3.75C8.75 4.08152 8.6183 4.39946 8.38388 4.63388C8.14946 4.8683 7.83152 5 7.5 5C7.16848 5 6.85054 4.8683 6.61612 4.63388C6.3817 4.39946 6.25 4.08152 6.25 3.75C6.25 3.41848 6.3817 3.10054 6.61612 2.86612C6.85054 2.6317 7.16848 2.5 7.5 2.5ZM2.8125 10.625C2.8125 10.3764 2.91127 10.1379 3.08709 9.96209C3.2629 9.78627 3.50136 9.6875 3.75 9.6875C3.99864 9.6875 4.2371 9.78627 4.41291 9.96209C4.58873 10.1379 4.6875 10.3764 4.6875 10.625C4.6875 10.8736 4.58873 11.1121 4.41291 11.2879C4.2371 11.4637 3.99864 11.5625 3.75 11.5625C3.50136 11.5625 3.2629 11.4637 3.08709 11.2879C2.91127 11.1121 2.8125 10.8736 2.8125 10.625ZM6.875 10H11.875C12.2188 10 12.5 10.2812 12.5 10.625C12.5 10.9688 12.2188 11.25 11.875 11.25H6.875C6.53125 11.25 6.25 10.9688 6.25 10.625C6.25 10.2812 6.53125 10 6.875 10ZM2.8125 14.375C2.8125 14.1264 2.91127 13.8879 3.08709 13.7121C3.2629 13.5363 3.50136 13.4375 3.75 13.4375C3.99864 13.4375 4.2371 13.5363 4.41291 13.7121C4.58873 13.8879 4.6875 14.1264 4.6875 14.375C4.6875 14.6236 4.58873 14.8621 4.41291 15.0379C4.2371 15.2137 3.99864 15.3125 3.75 15.3125C3.50136 15.3125 3.2629 15.2137 3.08709 15.0379C2.91127 14.8621 2.8125 14.6236 2.8125 14.375ZM6.25 14.375C6.25 14.0312 6.53125 13.75 6.875 13.75H11.875C12.2188 13.75 12.5 14.0312 12.5 14.375C12.5 14.7188 12.2188 15 11.875 15H6.875C6.53125 15 6.25 14.7188 6.25 14.375Z" fill="black"/>
</svg>
