<svg width="20" height="18" viewBox="0 0 20 18" fill="none" xmlns="http://www.w3.org/2000/svg">
<path id="Vector" d="M14.7617 2.88325L19.5586 7.67437C19.8398 7.95528 20 8.34154 20 8.7395C20 9.13745 19.8398 9.52371 19.5586 9.80462L14.7617 14.5957C14.5117 14.8454 14.1758 14.982 13.8242 14.982C13.0938 14.982 12.5 14.389 12.5 13.6594V11.2365H7.5C6.80859 11.2365 6.25 10.6786 6.25 9.988V7.491C6.25 6.80042 6.80859 6.2425 7.5 6.2425H12.5V3.81963C12.5 3.09004 13.0938 2.497 13.8242 2.497C14.1758 2.497 14.5117 2.63745 14.7617 2.88325ZM6.25 2.497H3.75C3.05859 2.497 2.5 3.05492 2.5 3.7455V13.7335C2.5 14.4241 3.05859 14.982 3.75 14.982H6.25C6.94141 14.982 7.5 15.5399 7.5 16.2305C7.5 16.9211 6.94141 17.479 6.25 17.479H3.75C1.67969 17.479 0 15.8013 0 13.7335V3.7455C0 1.67767 1.67969 0 3.75 0H6.25C6.94141 0 7.5 0.557923 7.5 1.2485C7.5 1.93908 6.94141 2.497 6.25 2.497Z" fill="black"/>
</svg>
