<svg width="23" height="26" viewBox="0 0 23 26" fill="none" xmlns="http://www.w3.org/2000/svg">
<path d="M17.4428 8.1393V6.5768C17.4428 3.13051 14.6391 0.326797 11.1928 0.326797C7.74652 0.326797 4.94281 3.13051 4.94281 6.5768V8.1393H0.25531V21.4205C0.25531 23.5779 2.00419 25.3268 4.16156 25.3268H18.2241C20.3814 25.3268 22.1303 23.5779 22.1303 21.4205V8.1393H17.4428ZM8.06781 6.5768C8.06781 4.85365 9.46967 3.4518 11.1928 3.4518C12.916 3.4518 14.3178 4.85365 14.3178 6.5768V8.1393H8.06781V6.5768ZM15.8803 12.4362C15.2331 12.4362 14.7084 11.9115 14.7084 11.2643C14.7084 10.6171 15.2331 10.0924 15.8803 10.0924C16.5275 10.0924 17.0522 10.6171 17.0522 11.2643C17.0522 11.9115 16.5275 12.4362 15.8803 12.4362ZM6.50531 12.4362C5.85809 12.4362 5.33344 11.9115 5.33344 11.2643C5.33344 10.6171 5.85809 10.0924 6.50531 10.0924C7.15253 10.0924 7.67719 10.6171 7.67719 11.2643C7.67719 11.9115 7.15253 12.4362 6.50531 12.4362Z" fill="black"/>
</svg>
