<svg width="30" height="30" viewBox="0 0 30 30" fill="none" xmlns="http://www.w3.org/2000/svg">
<g id="brand / twitter">
<path id="coolicon" d="M24.9938 8.36023C26.1143 7.69034 26.9527 6.63553 27.3525 5.39273C26.2996 6.01748 25.1476 6.45758 23.9463 6.69398C22.2807 4.93214 19.6419 4.50339 17.5043 5.6473C15.3666 6.79121 14.2594 9.22459 14.8013 11.5877C10.4883 11.3712 6.46998 9.33388 3.74627 5.98273C2.32482 8.43451 3.05121 11.5687 5.40627 13.1452C4.55466 13.1179 3.72193 12.8873 2.97752 12.4727C2.97752 12.4952 2.97752 12.5177 2.97752 12.5402C2.97801 15.0942 4.77798 17.2941 7.28127 17.8002C6.49135 18.0151 5.66278 18.0468 4.85877 17.8927C5.56277 20.0768 7.57571 21.5731 9.87002 21.6177C7.96981 23.1091 5.62311 23.9179 3.20752 23.914C2.77936 23.9146 2.35153 23.89 1.92627 23.8402C4.37926 25.4165 7.23423 26.2532 10.15 26.2502C14.2066 26.2781 18.1051 24.6789 20.9734 21.8103C23.8418 18.9416 25.4407 15.043 25.4125 10.9865C25.4125 10.754 25.4071 10.5227 25.3963 10.2927C26.4468 9.53348 27.3535 8.59292 28.0738 7.51523C27.095 7.94906 26.0569 8.23388 24.9938 8.36023Z" fill="#2E3A59"/>
</g>
</svg>
